<?xml version="1.0" encoding="UTF-8" standalone="no" ?>
<!DOCTYPE svg PUBLIC "-//W3C//DTD SVG 1.1//EN" "http://www.w3.org/Graphics/SVG/1.1/DTD/svg11.dtd">
<svg xmlns="http://www.w3.org/2000/svg" xmlns:xlink="http://www.w3.org/1999/xlink" version="1.1" width="1080" height="1080" viewBox="0 0 1080 1080" xml:space="preserve">
<desc>Created with Fabric.js 5.2.4</desc>
<defs>
</defs>
<g transform="matrix(1 0 0 1 540 540)" id="c852a4f6-c99c-46d6-bd5d-1cbe0f05c051"  >
<rect style="stroke: none; stroke-width: 1; stroke-dasharray: none; stroke-linecap: butt; stroke-dashoffset: 0; stroke-linejoin: miter; stroke-miterlimit: 4; fill: rgb(255,255,255); fill-rule: nonzero; opacity: 1; visibility: hidden;" vector-effect="non-scaling-stroke"  x="-540" y="-540" rx="0" ry="0" width="1080" height="1080" />
</g>
<g transform="matrix(1 0 0 1 540 540)" id="f71658d6-613e-4e92-9ee8-5ac092100856"  >
</g>
<g transform="matrix(NaN NaN NaN NaN 0 0)"  >
<g style=""   >
</g>
</g>
<g transform="matrix(1 0 0 1 417.83 518.1)"  >
<g style="" vector-effect="non-scaling-stroke"   >
		<g transform="matrix(1 0 0 1 -6.9 -6.66)"  >
<path style="stroke: none; stroke-width: 1; stroke-dasharray: none; stroke-linecap: butt; stroke-dashoffset: 0; stroke-linejoin: miter; stroke-miterlimit: 4; fill: rgb(0,122,255); fill-rule: nonzero; opacity: 1;" vector-effect="non-scaling-stroke"  transform=" translate(-22.1, -13.88)" d="M 18.7282 0 L 44.2018 0 L 25.4736 27.7589 L 0 27.7589 L 18.7282 0 Z" stroke-linecap="round" />
</g>
		<g transform="matrix(1 0 0 1 6.29 6.66)"  >
<path style="stroke: none; stroke-width: 1; stroke-dasharray: none; stroke-linecap: butt; stroke-dashoffset: 0; stroke-linejoin: miter; stroke-miterlimit: 4; fill: rgb(49,46,203); fill-rule: nonzero; opacity: 1;" vector-effect="non-scaling-stroke"  transform=" translate(-35.29, -27.2)" d="M 19.8437 30.3314 L 12.5899 41.0831 L 39.2718 41.0831 L 58 13.3242 L 38.3071 13.3242 L 26.8327 30.3314 L 19.8437 30.3314 Z" stroke-linecap="round" />
</g>
</g>
</g>
<g transform="matrix(1 0 0 0.78 555.48 518.54)" style="" id="524b4e77-d67d-4f5c-a42d-1c3f491331a4"  >
		<text xml:space="preserve" font-family="Alegreya" font-size="50" font-style="normal" font-weight="600" style="stroke: none; stroke-width: 1; stroke-dasharray: none; stroke-linecap: butt; stroke-dashoffset: 0; stroke-linejoin: miter; stroke-miterlimit: 4; fill: rgb(0,0,0); fill-rule: nonzero; opacity: 1; white-space: pre;" ><tspan x="-73.8" y="15.71" >Bg-Lift</tspan></text>
</g>
</svg>